<?xml version="1.0" encoding="UTF-8"?>
<svg xmlns="http://www.w3.org/2000/svg" xmlns:xlink="http://www.w3.org/1999/xlink" width="32px" height="32px" viewBox="0 0 32 32" version="1.1">
<g id="surface1">
<path style=" stroke:none;fill-rule:nonzero;fill:rgb(0%,0%,0%);fill-opacity:1;" d="M 0.988281 3.351562 C 0.65625 3.449219 0.375 3.742188 0.375 3.980469 C 0.375 4.417969 0.949219 4.976562 1.960938 5.53125 C 2.648438 5.90625 3.914062 6.429688 4.820312 6.730469 L 5.5625 6.96875 L 5.5625 9.738281 L 5.855469 9.835938 C 6.019531 9.894531 6.15625 9.9375 6.167969 9.9375 C 6.179688 9.9375 6.1875 9.3125 6.1875 8.554688 L 6.1875 7.167969 L 6.363281 7.207031 C 6.457031 7.230469 6.84375 7.320312 7.226562 7.40625 C 8.269531 7.644531 9.082031 7.75 9.84375 7.75 C 10.675781 7.75 10.957031 7.679688 11.238281 7.398438 C 11.425781 7.210938 11.449219 7.15625 11.417969 6.960938 C 11.34375 6.492188 10.757812 5.96875 9.695312 5.414062 C 6.914062 3.976562 2.425781 2.90625 0.988281 3.351562 Z M 0.988281 3.351562 "/>
<path style=" stroke:none;fill-rule:nonzero;fill:rgb(0%,0%,0%);fill-opacity:1;" d="M 29.28125 3.292969 C 26.117188 3.675781 21.863281 5.261719 20.851562 6.445312 C 20.582031 6.761719 20.511719 7.039062 20.648438 7.292969 C 20.8125 7.613281 21.117188 7.710938 21.976562 7.738281 C 22.804688 7.761719 23.644531 7.664062 24.78125 7.40625 C 25.164062 7.320312 25.542969 7.230469 25.644531 7.207031 L 25.8125 7.167969 L 25.8125 8.679688 C 25.8125 9.507812 25.820312 10.1875 25.832031 10.1875 C 25.84375 10.1875 25.980469 10.144531 26.144531 10.085938 L 26.4375 9.988281 L 26.4375 6.949219 L 26.726562 6.882812 C 27.835938 6.601562 30.148438 5.554688 30.894531 4.992188 C 31.332031 4.664062 31.625 4.261719 31.625 3.980469 C 31.625 3.730469 31.34375 3.449219 30.980469 3.34375 C 30.6875 3.257812 29.800781 3.230469 29.28125 3.292969 Z M 29.28125 3.292969 "/>
<path style=" stroke:none;fill-rule:nonzero;fill:rgb(0%,0%,0%);fill-opacity:1;" d="M 13.195312 8.648438 C 12.960938 8.773438 12.882812 8.992188 12.875 9.449219 C 12.875 10.3125 12.980469 10.375 14.5 10.375 L 15.625 10.375 L 15.625 11.8125 L 16.25 11.8125 L 16.25 10.375 L 17.375 10.375 C 18.882812 10.375 19 10.3125 19 9.46875 C 19 8.992188 18.914062 8.773438 18.679688 8.648438 C 18.429688 8.523438 13.425781 8.523438 13.195312 8.648438 Z M 13.195312 8.648438 "/>
<path style=" stroke:none;fill-rule:nonzero;fill:rgb(0%,0%,0%);fill-opacity:1;" d="M 4.386719 10.082031 C 4.320312 10.15625 3.9375 12.476562 3.9375 12.78125 C 3.9375 12.863281 3.976562 12.949219 4.019531 12.988281 C 4.054688 13.019531 5.457031 13.289062 7.113281 13.582031 L 10.136719 14.117188 L 10.488281 13.773438 C 10.6875 13.582031 10.976562 13.332031 11.132812 13.207031 L 11.417969 12.988281 L 11.523438 12.226562 C 11.585938 11.8125 11.613281 11.417969 11.59375 11.363281 C 11.570312 11.304688 11.476562 11.242188 11.386719 11.226562 C 11.074219 11.164062 4.523438 10 4.476562 10 C 4.460938 10 4.425781 10.039062 4.386719 10.082031 Z M 4.386719 10.082031 "/>
<path style=" stroke:none;fill-rule:nonzero;fill:rgb(0%,0%,0%);fill-opacity:1;" d="M 23.5 10.914062 C 21.6875 11.21875 20.3125 11.476562 20.261719 11.519531 C 20.199219 11.585938 20.207031 11.726562 20.292969 12.273438 C 20.398438 12.945312 20.40625 12.949219 20.65625 13.144531 C 20.792969 13.242188 21.082031 13.5 21.289062 13.707031 L 21.667969 14.074219 L 24.570312 13.59375 C 26.398438 13.292969 27.5 13.085938 27.554688 13.03125 C 27.632812 12.957031 27.613281 12.769531 27.445312 11.710938 C 27.335938 11.039062 27.230469 10.457031 27.210938 10.429688 C 27.148438 10.324219 26.632812 10.394531 23.5 10.914062 Z M 23.5 10.914062 "/>
<path style=" stroke:none;fill-rule:nonzero;fill:rgb(0%,0%,0%);fill-opacity:1;" d="M 14.71875 12.28125 C 12.824219 12.625 11.28125 13.585938 10.132812 15.125 C 8.761719 16.957031 8.367188 19.46875 9.105469 21.675781 C 9.570312 23.0625 10.539062 24.382812 11.707031 25.210938 C 11.9375 25.375 12.125 25.53125 12.125 25.550781 C 12.125 25.574219 11.882812 25.886719 11.585938 26.25 C 10.925781 27.054688 10.882812 27.144531 11.03125 27.3125 C 11.257812 27.5625 11.386719 27.480469 12.0625 26.65625 C 12.414062 26.226562 12.71875 25.875 12.730469 25.875 C 12.75 25.875 13.007812 25.96875 13.304688 26.085938 C 14.980469 26.757812 16.949219 26.738281 18.710938 26.03125 C 19.070312 25.886719 19.148438 25.875 19.21875 25.945312 C 19.257812 25.992188 19.554688 26.351562 19.867188 26.730469 C 20.449219 27.445312 20.613281 27.550781 20.800781 27.363281 C 20.976562 27.1875 20.867188 26.96875 20.28125 26.257812 L 19.695312 25.542969 L 20.117188 25.242188 C 20.355469 25.082031 20.730469 24.761719 20.957031 24.542969 C 23.46875 22.070312 23.84375 18.238281 21.863281 15.289062 C 21.523438 14.789062 20.511719 13.78125 20.007812 13.4375 C 19.125 12.84375 18.125 12.445312 17.117188 12.28125 C 16.417969 12.167969 15.324219 12.167969 14.71875 12.28125 Z M 17.042969 13.15625 C 19.542969 13.632812 21.367188 15.332031 22.074219 17.84375 C 22.261719 18.53125 22.292969 19.867188 22.136719 20.625 C 21.605469 23.199219 19.585938 25.167969 17 25.632812 C 16.480469 25.71875 15.304688 25.71875 14.832031 25.625 C 12.195312 25.105469 10.207031 23.144531 9.710938 20.574219 C 9.59375 19.957031 9.601562 18.738281 9.726562 18.144531 C 10.039062 16.636719 10.886719 15.269531 12.082031 14.367188 C 12.882812 13.761719 14.132812 13.226562 15.03125 13.105469 C 15.5 13.042969 16.59375 13.070312 17.042969 13.15625 Z M 17.042969 13.15625 "/>
<path style=" stroke:none;fill-rule:nonzero;fill:rgb(0%,0%,0%);fill-opacity:1;" d="M 14.949219 13.757812 C 13.175781 14.050781 11.574219 15.28125 10.773438 16.957031 C 10.414062 17.726562 10.304688 18.1875 10.269531 19.132812 C 10.230469 20.09375 10.324219 20.710938 10.625 21.480469 C 11.148438 22.851562 12.394531 24.105469 13.742188 24.65625 C 14.851562 25.105469 16.199219 25.207031 17.324219 24.914062 C 19.300781 24.40625 20.824219 22.929688 21.414062 20.96875 C 21.636719 20.207031 21.6875 19.070312 21.53125 18.304688 C 21.289062 17.101562 20.820312 16.238281 19.914062 15.34375 C 19.011719 14.457031 18.023438 13.9375 16.875 13.757812 C 16.398438 13.675781 15.417969 13.679688 14.949219 13.757812 Z M 18.582031 18.40625 C 19.019531 18.625 19.394531 19.011719 19.613281 19.488281 C 19.757812 19.792969 19.78125 19.925781 19.78125 20.40625 C 19.78125 20.90625 19.761719 21.011719 19.59375 21.332031 C 19.355469 21.804688 18.855469 22.261719 18.386719 22.4375 C 18.105469 22.542969 17.929688 22.570312 17.53125 22.550781 C 16.679688 22.511719 16.039062 22.105469 15.644531 21.363281 C 15.488281 21.0625 15.46875 20.976562 15.46875 20.375 C 15.46875 19.789062 15.488281 19.6875 15.636719 19.40625 C 15.800781 19.085938 16.28125 18.585938 16.570312 18.4375 C 17.136719 18.132812 17.992188 18.117188 18.582031 18.40625 Z M 18.582031 18.40625 "/>
<path style=" stroke:none;fill-rule:nonzero;fill:rgb(0%,0%,0%);fill-opacity:1;" d="M 17.074219 18.894531 C 16.789062 18.980469 16.34375 19.394531 16.195312 19.707031 C 16.023438 20.054688 16.019531 20.679688 16.179688 21.03125 C 16.324219 21.34375 16.707031 21.710938 17.011719 21.84375 C 17.726562 22.136719 18.65625 21.792969 19.011719 21.101562 C 19.40625 20.335938 19.09375 19.394531 18.320312 18.988281 C 17.957031 18.800781 17.480469 18.761719 17.074219 18.894531 Z M 17.074219 18.894531 "/>
<path style=" stroke:none;fill-rule:nonzero;fill:rgb(0%,0%,0%);fill-opacity:1;" d="M 5.5625 18.554688 L 5.5625 23.429688 L 3.550781 25.0625 C 2.4375 25.960938 1.507812 26.761719 1.476562 26.851562 C 1.429688 26.960938 1.445312 27.023438 1.53125 27.125 C 1.59375 27.195312 1.6875 27.25 1.75 27.25 C 1.804688 27.25 2.675781 26.574219 3.6875 25.757812 L 5.53125 24.261719 L 5.5625 26.445312 C 5.59375 28.742188 5.59375 28.75 5.875 28.75 C 6.15625 28.75 6.15625 28.742188 6.1875 26.445312 L 6.21875 24.257812 L 8 25.699219 C 8.980469 26.488281 9.84375 27.164062 9.914062 27.199219 C 10.113281 27.292969 10.3125 27.164062 10.3125 26.9375 C 10.3125 26.773438 10.105469 26.585938 8.25 25.09375 L 6.1875 23.425781 L 6.1875 13.886719 L 5.894531 13.789062 C 5.730469 13.730469 5.59375 13.6875 5.582031 13.6875 C 5.570312 13.6875 5.5625 15.882812 5.5625 18.554688 Z M 5.5625 18.554688 "/>
<path style=" stroke:none;fill-rule:nonzero;fill:rgb(0%,0%,0%);fill-opacity:1;" d="M 26.082031 13.792969 L 25.8125 13.886719 L 25.8125 23.429688 L 23.75 25.09375 C 21.882812 26.601562 21.6875 26.773438 21.6875 26.945312 C 21.6875 27.167969 21.914062 27.304688 22.101562 27.199219 C 22.167969 27.164062 23.019531 26.488281 24 25.699219 L 25.78125 24.261719 L 25.8125 26.445312 C 25.84375 28.742188 25.84375 28.75 26.125 28.75 C 26.40625 28.75 26.40625 28.742188 26.4375 26.445312 L 26.46875 24.257812 L 28.3125 25.75 C 29.324219 26.574219 30.199219 27.25 30.257812 27.25 C 30.3125 27.25 30.40625 27.195312 30.46875 27.125 C 30.554688 27.023438 30.570312 26.960938 30.523438 26.84375 C 30.492188 26.761719 29.574219 25.96875 28.457031 25.0625 L 26.4375 23.425781 L 26.4375 18.554688 C 26.4375 15.882812 26.417969 13.6875 26.394531 13.695312 C 26.363281 13.695312 26.226562 13.738281 26.082031 13.792969 Z M 26.082031 13.792969 "/>
</g>
</svg>
